<svg xmlns="http://www.w3.org/2000/svg" xmlns:xlink="http://www.w3.org/1999/xlink" width="143.8863" height="31.7"><path fill="#fff" d="M1.58 4.72L1.58 26.75L5.42 26.75L5.42 7.70L12.27 7.70L12.27 26.75L16.10 26.75L16.10 4.72ZM22.76 10.81L19.27 10.81L19.27 31.35L23.05 31.35L23.05 24.88C24.00 26.31 25.39 27.07 27.01 27.07C30.69 27.07 33.22 24.12 33.22 18.77C33.22 13.44 30.75 10.49 27.20 10.49C25.42 10.49 23.97 11.32 22.95 12.87ZM26.06 24.09C24.06 24.09 23.05 22.48 23.05 18.80C23.05 15.09 24.12 13.47 26.25 13.47C28.31 13.47 29.32 15.09 29.32 18.77C29.32 22.48 28.24 24.09 26.06 24.09ZM47.52 15.88C47.52 12.01 45.55 10.56 41.56 10.56C39.05 10.56 37.09 11.35 35.95 12.01L35.95 15.15C36.96 14.39 39.18 13.57 41.11 13.57C42.92 13.57 43.75 14.20 43.75 15.91L43.75 16.80L43.14 16.80C37.37 16.80 34.81 18.70 34.81 21.94C34.81 25.17 36.77 26.98 39.69 26.98C41.91 26.98 42.86 26.25 43.59 25.49L43.75 25.49C43.78 25.90 43.90 26.44 44.03 26.75L47.71 26.75C47.58 25.46 47.52 24.16 47.52 22.86ZM43.75 22.95C43.27 23.65 42.38 24.22 41.05 24.22C39.47 24.22 38.67 23.27 38.67 21.84C38.67 19.97 39.97 19.31 43.21 19.31L43.75 19.31ZM59.91 26.75L64.19 26.75L58.14 18.16L63.46 10.81L59.66 10.81L54.33 18.16L54.33 10.81L50.56 10.81L50.56 26.75L54.33 26.75L54.33 18.92ZM77.63 13.79L77.63 10.81L64.98 10.81L64.98 13.79L69.42 13.79L69.42 26.75L73.20 26.75L73.20 13.79ZM79.85 10.81L79.85 26.75L83.12 26.75L88.95 16.90L88.95 26.75L92.63 26.75L92.63 10.81L89.36 10.81L83.53 20.67L83.53 10.81ZM105.15 26.75L109.43 26.75L103.37 18.16L108.70 10.81L104.90 10.81L99.57 18.16L99.57 10.81L95.80 10.81L95.80 26.75L99.57 26.75L99.57 18.92ZM112.73 31.67C116.24 31.67 117.54 29.16 118.62 25.90L123.60 10.81L119.95 10.81L116.43 22.79L112.92 10.81L108.95 10.81L114.44 27.45C114.02 28.21 113.42 28.69 112.38 28.69C111.68 28.69 111.08 28.47 110.66 28.05L110.66 31.13C110.66 31.13 111.24 31.67 112.73 31.67ZM138.62 26.75L142.30 26.75L142.24 10.81L137.07 10.81L133.62 21.43L130.51 10.81L125.02 10.81L125.02 26.75L128.23 26.75L128.23 14.84L131.68 26.75L134.76 26.75L138.62 14.84Z"/></svg>